<?xml version="1.0" encoding="UTF-8"?>
<svg id="Layer_2" data-name="Layer 2" xmlns="http://www.w3.org/2000/svg" xmlns:xlink="http://www.w3.org/1999/xlink" viewBox="0 0 42.87 52.01">
  <defs>
    <style>
      .cls-1 {
        filter: url(#drop-shadow-1);
      }

      .cls-2 {
        fill: #fff;
      }

      .cls-2, .cls-3 {
        stroke-width: 0px;
      }

      .cls-3 {
        fill: #ed1c24;
      }
    </style>
    <filter id="drop-shadow-1" filterUnits="userSpaceOnUse">
      <feOffset dx="1.71" dy="1.71"/>
      <feGaussianBlur result="blur" stdDeviation="1.71"/>
      <feFlood flood-color="#020a2b" flood-opacity=".3"/>
      <feComposite in2="blur" operator="in"/>
      <feComposite in="SourceGraphic"/>
    </filter>
  </defs>
  <g id="Layer_1-2" data-name="Layer 1">
    <g class="cls-1">
      <path class="cls-2" d="m29.18,51.99v-.67c0-8.59,0-17.18,0-25.78,0-.31.09-.46.38-.59,4.12-1.8,8.22-3.61,12.33-5.42.64-.28.98-.07.98.63,0,8.36,0,16.72,0,25.09,0,.48-.17.81-.61,1-4.28,1.88-8.55,3.76-12.83,5.65-.06.03-.13.05-.25.09Z"/>
      <path class="cls-2" d="m13.68,19.11c0,.17,0,.28,0,.38,0,8.7,0,17.41,0,26.11,0,.29-.08.42-.35.53-3.98,1.74-7.96,3.5-11.94,5.25-.82.36-1.4,0-1.4-.9C0,42.23,0,33.96,0,25.69c0-.39.13-.63.49-.78,4.31-1.89,8.62-3.79,12.93-5.69.06-.03.13-.05.26-.1Z"/>
      <path class="cls-2" d="m28.28,52.01c-1.35-.59-2.63-1.15-3.91-1.72-3.13-1.38-6.25-2.76-9.38-4.13-.29-.13-.4-.27-.4-.61.01-8.66,0-17.33,0-25.99v-.46c.67.3,1.31.57,1.94.86.08.03.12.15.17.23,1.36,2.19,2.9,4.25,4.58,6.2.9,1.04,2.08,1.05,2.98,0,.62-.73,1.22-1.46,1.86-2.23.67.29,1.35.59,2.03.9.07.03.12.17.13.26.02.2,0,.41,0,.62,0,8.51,0,17.01,0,25.52,0,.15,0,.31,0,.54Z"/>
      <path class="cls-3" d="m22.79,0c-.42.04-.84.06-1.26.11-4.62.59-8.1,4.8-7.85,9.44.11,1.92.58,3.74,1.31,5.51,1.67,4.07,4.18,7.61,7.03,10.92.45.53,1.07.49,1.56-.07,2.17-2.5,4.1-5.16,5.67-8.09,1.3-2.43,2.31-4.97,2.58-7.75C32.35,4.68,28.19.04,22.79,0Zm-.04,13.4c-2.37,0-4.28-1.93-4.27-4.3,0-2.38,1.92-4.28,4.3-4.27,2.37,0,4.28,1.93,4.28,4.3,0,2.37-1.93,4.28-4.31,4.27Z"/>
    </g>
  </g>
</svg>